PathFileType	4	(X/Y/Z)	./resultDataOpenSim/trcMotMarkerGrf/sub10/qtm-12-07.trc
DataRate	CameraRate	NumFrames	NumMarkers	Units	OrigDataRate	OrigDataStartFrame	OrigNumFrames
250.000000	250.000000	13	24	m	250.000000	126	503
Frame#	Time	L.Toe.Tip			R.Toe.Tip			L.Ankle.Lat			R.Ankle.Lat			L.Ankle.Med			R.Ankle.Med			L.Heel			R.Heel			L.Knee.Lat			R.Knee.Lat			L.Knee.Med			R.Knee.Med			L.Thigh.Upper			R.Thigh.Upper			L.ASIS			R.ASIS			V.Sacral			L.Acromium			R.Acromium			C7			L.Elbow			R.Elbow			L.Wrist.Lat			R.Wrist.Lat
		X1	Y1	Z1	X2	Y2	Z2	X3	Y3	Z3	X4	Y4	Z4	X5	Y5	Z5	X6	Y6	Z6	X7	Y7	Z7	X8	Y8	Z8	X9	Y9	Z9	X10	Y10	Z10	X11	Y11	Z11	X12	Y12	Z12	X13	Y13	Z13	X14	Y14	Z14	X15	Y15	Z15	X16	Y16	Z16	X17	Y17	Z17	X18	Y18	Z18	X19	Y19	Z19	X20	Y20	Z20	X21	Y21	Z21	X22	Y22	Z22	X23	Y23	Z23	X24	Y24	Z24

126	0.5	-0.3062722	0.075169137	-0.079037111	-0.69309016	0.040307099	0.063952648	-0.44289953	0.081007352	-0.083331021	-0.82662375	0.054526684	0.11070294	-0.42179753	0.10800332	-0.0046657481	-0.81787065	0.083639795	0.025376152	-0.49376277	0.04432603	-0.025626869	-0.88474855	0.031971418	0.065914242	-0.46018929	0.47523541	-0.11253642	-0.7137432	0.441631	0.15579856	-0.4321279	0.45516254	0.0052066052	-0.71757041	0.45042332	0.025087124	-0.61045264	0.82917501	-0.16197457	-0.65635839	0.85402374	0.21880795	-0.57163515	0.94201848	-0.092972998	-0.58024579	0.94210746	0.1527278	-0.78293133	0.95497191	0.029935396	-0.64996286	1.4034975	-0.12867382	-0.65801631	1.4076485	0.19998667	-0.73803296	1.4342983	0.028748768	-0.77231116	1.0780172	-0.18314842	-0.74164746	1.0668142	0.26461271	-0.64224724	0.86947949	-0.20078461	-0.58935853	0.87258092	0.28384401
127	0.504	-0.28845692	0.077860634	-0.079432541	-0.69306596	0.040124973	0.063955723	-0.42518991	0.079947214	-0.083530041	-0.8265787	0.054547487	0.11069148	-0.4046344	0.1079483	-0.0048874643	-0.81779827	0.083774663	0.025274226	-0.47509931	0.042248869	-0.025821364	-0.88475636	0.032052497	0.065858806	-0.45406503	0.47353497	-0.11299624	-0.71143221	0.44102462	0.15571514	-0.42617404	0.45371415	0.0047754279	-0.71543717	0.44989611	0.024989532	-0.60365586	0.82832556	-0.16239898	-0.65262457	0.85318855	0.21847334	-0.56502657	0.94101309	-0.092891369	-0.57521024	0.94101523	0.15293035	-0.77568558	0.95313923	0.025350181	-0.64448992	1.4024855	-0.12872174	-0.65261346	1.4063749	0.20001377	-0.73278813	1.4331572	0.028821269	-0.76789703	1.0774724	-0.18279355	-0.73445746	1.0648975	0.26498914	-0.63952962	0.86819653	-0.20119074	-0.57962099	0.87219671	0.28226509
128	0.508	-0.2710016	0.080678807	-0.079697337	-0.69302963	0.039938529	0.063957102	-0.40777292	0.079196375	-0.083814755	-0.82658214	0.054565964	0.1106573	-0.38786074	0.10810598	-0.0051952794	-0.81778513	0.083798161	0.02500699	-0.45669871	0.040521004	-0.026136429	-0.88476356	0.032135029	0.065798292	-0.44785504	0.47177978	-0.11348926	-0.70904842	0.44038834	0.1555986	-0.42015444	0.45212722	0.0043206619	-0.71313629	0.44928848	0.024872398	-0.59688053	0.82738819	-0.16279118	-0.6488357	0.85232943	0.21813836	-0.55850548	0.93992256	-0.092776869	-0.57014312	0.93987798	0.15311171	-0.76819857	0.95070897	0.02040482	-0.63892641	1.4014189	-0.12878259	-0.64715619	1.4050119	0.20003205	-0.72745236	1.4319612	0.028869158	-0.7637668	1.0768852	-0.1825115	-0.72718048	1.0629222	0.26547858	-0.63674081	0.86684356	-0.20152754	-0.56984278	0.87179231	0.28070159
129	0.512	-0.25392176	0.083579689	-0.079871274	-0.69298746	0.039806413	0.063960637	-0.39072293	0.078752494	-0.084199006	-0.82657434	0.054580594	0.11061524	-0.37154564	0.10838572	-0.0056195371	-0.81779153	0.0837325	0.024660925	-0.43855519	0.039013481	-0.026633191	-0.88476827	0.03221765	0.065731866	-0.44154008	0.46999675	-0.11399235	-0.70662549	0.43971741	0.15544657	-0.41406013	0.45042565	0.003866992	-0.71065592	0.44860014	0.024738319	-0.59022953	0.82634187	-0.16312899	-0.64499895	0.85144632	0.21779404	-0.55206176	0.93875742	-0.092649898	-0.56518791	0.93868533	0.15326081	-0.76032638	0.94791537	0.015757726	-0.63341471	1.4002993	-0.12885011	-0.64164334	1.403576	0.20004048	-0.72201842	1.4307094	0.028891411	-0.75975419	1.0762698	-0.18230642	-0.71986059	1.0608884	0.26599497	-0.63393054	0.86542872	-0.2018159	-0.56006633	0.8713643	0.27914039
130	0.516	-0.23726605	0.086493638	-0.079990712	-0.69294635	0.039734013	0.063968329	-0.37409667	0.078547726	-0.084667222	-0.82654654	0.054591955	0.11056886	-0.35568779	0.1087688	-0.0061258702	-0.81774014	0.083637233	0.024358775	-0.42069035	0.037615858	-0.027349847	-0.8847695	0.032303808	0.06566004	-0.43511093	0.46821097	-0.11449031	-0.70420781	0.43899983	0.1552541	-0.40789642	0.44864108	0.0034371014	-0.70799404	0.44783261	0.024585812	-0.58369256	0.82517847	-0.16340778	-0.64113002	0.85053898	0.21742371	-0.54566139	0.93753856	-0.092525753	-0.56037954	0.9374435	0.15337648	-0.75208207	0.94519971	0.011850015	-0.62798632	1.3991158	-0.12891702	-0.63608545	1.4020805	0.20003717	-0.7165275	1.4294032	0.028894486	-0.75567745	1.0756309	-0.18214438	-0.71251575	1.0587904	0.26648885	-0.6311585	0.8639723	-0.20210837	-0.5503102	0.87091217	0.27757056
131	0.52	-0.22110643	0.089367854	-0.080070291	-0.69290788	0.03969183	0.063981988	-0.357927	0.078516626	-0.085205233	-0.8265093	0.054603451	0.11052013	-0.3402924	0.10926295	-0.006676054	-0.81759096	0.083552527	0.024153834	-0.40324569	0.036361634	-0.028230054	-0.88476887	0.032400224	0.065584264	-0.42856077	0.46644543	-0.11497562	-0.70184147	0.43822443	0.15502212	-0.40166778	0.44681517	0.0030528514	-0.70515121	0.4469941	0.024405453	-0.57718456	0.82390955	-0.16364221	-0.63724238	0.84961208	0.21702492	-0.53926925	0.93627119	-0.092400286	-0.55567672	0.93616025	0.15346582	-0.74429695	0.94301405	0.0091480096	-0.62254878	1.3978568	-0.12897625	-0.6304997	1.4005197	0.20002053	-0.71101147	1.4280439	0.028885125	-0.75146732	1.0749566	-0.1819711	-0.70514862	1.0566192	0.26694404	-0.62842839	0.86247625	-0.20240817	-0.5405775	0.87043271	0.27598659
132	0.524	-0.20549025	0.09220883	-0.080106696	-0.69287016	0.039654538	0.064001824	-0.34223924	0.078670537	-0.085837969	-0.82646951	0.054619013	0.11047049	-0.32537831	0.10987353	-0.0072477705	-0.81736715	0.083482656	0.024012489	-0.38644079	0.035392029	-0.029173017	-0.88476826	0.03251011	0.065506782	-0.42187608	0.46471968	-0.11544217	-0.69950252	0.4374032	0.15477433	-0.39537596	0.44499259	0.0027351768	-0.70213895	0.44609574	0.024196673	-0.57061784	0.8225495	-0.16385384	-0.63334094	0.84865615	0.21661556	-0.53284846	0.93494562	-0.092253818	-0.5510155	0.93484176	0.153541	-0.73786164	0.94146259	0.0077689248	-0.6170419	1.3965218	-0.12902589	-0.62489197	1.3988841	0.1999923	-0.70548097	1.4266305	0.028870504	-0.74714085	1.0742259	-0.18174374	-0.69775013	1.0543672	0.2673559	-0.62568127	0.86093145	-0.20266364	-0.53085749	0.86991641	0.27438236
133	0.528	-0.19042993	0.095040225	-0.080094284	-0.69283166	0.039612635	0.064027379	-0.32706157	0.079040809	-0.08659717	-0.82642462	0.054641161	0.11041762	-0.31097062	0.11058228	-0.0078401263	-0.81711277	0.083418266	0.023887008	-0.37040253	0.034770984	-0.030148462	-0.88476691	0.032630903	0.065430209	-0.41504127	0.46305448	-0.11588476	-0.69709084	0.43657199	0.15455007	-0.38902193	0.44319985	0.0024979672	-0.69900797	0.4451443	0.02398294	-0.56393453	0.82110225	-0.16406038	-0.62942167	0.84764618	0.21622131	-0.52638207	0.9335535	-0.09207489	-0.54634802	0.93349493	0.15361024	-0.73272294	0.94027093	0.0072784537	-0.61147431	1.3951193	-0.1290743	-0.6192547	1.397177	0.19995227	-0.69993695	1.4251652	0.028856462	-0.74274436	1.0734272	-0.18146681	-0.69028994	1.0520239	0.26770679	-0.62284635	0.85933817	-0.20284008	-0.52112914	0.86935489	0.27274562
134	0.532	-0.1759334	0.097844163	-0.08003301	-0.69279198	0.039567212	0.064058632	-0.31241958	0.079592975	-0.087481503	-0.82636905	0.054672637	0.11035619	-0.29711301	0.11134143	-0.0084932991	-0.81685709	0.083357103	0.023760492	-0.35511157	0.034412415	-0.031216557	-0.88476214	0.032759924	0.065358056	-0.40804707	0.46147587	-0.11629859	-0.69455256	0.43575212	0.15436418	-0.38261453	0.44143875	0.0023370033	-0.69582757	0.44414866	0.02379849	-0.55711393	0.81956345	-0.16426497	-0.62547491	0.84657627	0.21584568	-0.51985346	0.93209619	-0.091866214	-0.54165574	0.93212748	0.15367771	-0.72802703	0.93907503	0.007069467	-0.60585803	1.3936617	-0.12913422	-0.61358713	1.3954069	0.19990011	-0.69438679	1.4236588	0.028844675	-0.73831265	1.0725651	-0.1811776	-0.68271842	1.0495723	0.26795967	-0.61987351	0.85770545	-0.20295334	-0.51139515	0.86875618	0.27108063
135	0.536	-0.16201631	0.1005639	-0.079930218	-0.69275033	0.039522153	0.064096926	-0.29832997	0.080231928	-0.088470769	-0.8262998	0.054716104	0.11028355	-0.28385963	0.11208806	-0.0092671528	-0.81660762	0.083304389	0.023640454	-0.34049682	0.03417383	-0.032450425	-0.88475239	0.032898941	0.065290555	-0.40089672	0.46000747	-0.11667634	-0.69195635	0.43493423	0.15418957	-0.37617625	0.43970344	0.0022255118	-0.69260198	0.44312846	0.023670256	-0.55018897	0.81792775	-0.16444486	-0.6214851	0.84548138	0.21544149	-0.51321407	0.93058658	-0.0916275	-0.53694055	0.93074381	0.15374869	-0.72296899	0.93762746	0.0066937816	-0.60020562	1.3921615	-0.12921162	-0.60791029	1.3935803	0.19984537	-0.68885197	1.4221309	0.02883224	-0.73385355	1.0716507	-0.18089724	-0.67500483	1.0470064	0.26808841	-0.61674729	0.8560438	-0.20304704	-0.50171776	0.86814789	0.26943151
136	0.54	-0.1486857	0.10313668	-0.079797488	-0.69270548	0.039478074	0.064144841	-0.28479592	0.080853653	-0.089544613	-0.82621631	0.054771898	0.11020269	-0.27123149	0.11275791	-0.010161907	-0.81635241	0.083259065	0.023541515	-0.32650661	0.033941653	-0.033878174	-0.88473917	0.033054858	0.065208866	-0.39360772	0.45865861	-0.11701602	-0.68939576	0.43410721	0.15399578	-0.3697197	0.43799941	0.0021345071	-0.68926277	0.44210611	0.023606759	-0.54322958	0.81619321	-0.1645636	-0.61741115	0.84439328	0.21492332	-0.50644502	0.92904568	-0.091350446	-0.53220974	0.92934446	0.15382915	-0.71743323	0.93588817	0.0059215538	-0.5945379	1.3906271	-0.12930376	-0.6022528	1.3917033	0.19979863	-0.68335221	1.4206024	0.028812617	-0.72935908	1.0706922	-0.18062146	-0.66719045	1.0443596	0.26812172	-0.61350947	0.85435284	-0.20316266	-0.49216373	0.86755117	0.26784327
137	0.544	-0.13593169	0.1055145	-0.079639051	-0.69265728	0.039432519	0.064202741	-0.27180436	0.081390503	-0.090678763	-0.82611899	0.054840495	0.11011991	-0.25919747	0.11329763	-0.011096364	-0.81606435	0.083201048	0.023479301	-0.31311957	0.033649315	-0.03547819	-0.88472672	0.033239098	0.065057417	-0.38620123	0.45742139	-0.11733393	-0.68686967	0.43327582	0.15378339	-0.3632106	0.43634857	0.0020676735	-0.68579261	0.44109389	0.023572703	-0.53627463	0.81436137	-0.16460529	-0.613172	0.84328406	0.21421457	-0.49961095	0.92748733	-0.091027892	-0.52746693	0.92792744	0.15392325	-0.71191991	0.93403638	0.004746134	-0.58884494	1.3890572	-0.12940595	-0.5966243	1.3897823	0.19975848	-0.67788122	1.4190735	0.028777138	-0.72482433	1.0696908	-0.1803469	-0.65937539	1.0416957	0.26813265	-0.6102432	0.85261759	-0.20331897	-0.48270764	0.86695562	0.26630177
138	0.548	-0.12374769	0.10766133	-0.079446708	-0.69260679	0.039384947	0.064266353	-0.25934114	0.081828063	-0.091840252	-0.82600752	0.054926418	0.11004165	-0.24771837	0.11367514	-0.011993394	-0.81571693	0.083103154	0.023464551	-0.30035014	0.033275087	-0.03720229	-0.88471803	0.033464365	0.064767055	-0.37869765	0.45627709	-0.11765269	-0.68431378	0.43244652	0.15356208	-0.3565784	0.43478131	0.002057829	-0.68228488	0.44009565	0.023490301	-0.52930111	0.81243564	-0.16458386	-0.6086894	0.84209194	0.21328625	-0.49278756	0.9258969	-0.090664812	-0.52271714	0.92648904	0.1540347	-0.70686459	0.93230894	0.0033384298	-0.58308579	1.3874447	-0.12951561	-0.59101284	1.3878257	0.19972133	-0.67242034	1.4175133	0.028718579	-0.72024907	1.0686442	-0.18007712	-0.65162935	1.0390592	0.26816917	-0.60699353	0.85083532	-0.20350788	-0.4732491	0.86633556	0.26475146
